<svg xmlns="http://www.w3.org/2000/svg" width="1200" height="720" viewBox="0 0 1200 720"><rect width="1200" height="720" rx="22" fill="#0b121b"/><g font-family="Inter,Arial" text-anchor="middle"><text x="600" y="55" fill="#eaf3f8" font-size="30" font-weight="700">Cross-platform equipment software architecture</text>
<g fill="#182738" stroke="#3e739c" stroke-width="2"><rect x="400" y="100" width="400" height="110" rx="14"/><rect x="100" y="300" width="260" height="110" rx="14"/><rect x="470" y="300" width="260" height="110" rx="14"/><rect x="840" y="300" width="260" height="110" rx="14"/><rect x="100" y="520" width="260" height="110" rx="14"/><rect x="470" y="520" width="260" height="110" rx="14"/><rect x="840" y="520" width="260" height="110" rx="14"/></g>
<g fill="#eaf3f8" font-size="20"><text x="600" y="145">Machine runtime</text><text x="600" y="178" fill="#90abc0" font-size="16">domain · commands · sequence · alarms · recovery</text><text x="230" y="345">Avalonia HMI</text><text x="600" y="345">WebSocket API</text><text x="970" y="345">Browser digital twin</text><text x="230" y="565">Simulation adapter</text><text x="600" y="565">Event + outbox store</text><text x="970" y="565">OPC UA / MES adapters</text></g>
<g stroke="#54b4e8" stroke-width="3" fill="none"><path d="M500 210L300 300"/><path d="M600 210v90"/><path d="M700 210l200 90"/><path d="M500 410L300 520"/><path d="M600 410v110"/><path d="M700 410l200 110"/></g></g></svg>
